<svg xmlns="http://www.w3.org/2000/svg" xmlns:xlink="http://www.w3.org/1999/xlink" version="1.1" id="Layer_1" x="0px" y="0px" viewBox="0 0 1080 296" style="enable-background:new 0 0 1080 296;" xml:space="preserve">
<style type="text/css">
	.st0{fill:none;}
	.st1{fill:#D7B546;}
</style>
<g>
	<g>
		<path d="M39.99,276.77v-23.97h-8.14v-4.62h22.34v4.62h-8.14v23.97H39.99z"/>
		<path d="M72.66,276.77h-6.02v-28.59c0.26,0,0.51,0,0.76,0s0.5,0,0.75,0c0.25,0,0.5,0,0.76,0c0.98,0,2.11-0.05,3.41-0.15    c1.3-0.1,2.85-0.15,4.66-0.15c1.33,0,2.62,0.14,3.85,0.43c1.23,0.29,2.33,0.76,3.3,1.42c0.97,0.66,1.74,1.55,2.3,2.66    c0.56,1.12,0.85,2.5,0.85,4.16c0,1.86-0.31,3.4-0.92,4.63c-0.62,1.23-1.48,2.18-2.59,2.87c-1.11,0.69-2.41,1.14-3.9,1.38    c-0.51,0.08-1.03,0.15-1.56,0.22c-0.53,0.07-1.22,0.13-2.08,0.17c-0.86,0.04-2.05,0.07-3.56,0.07V276.77z M72.66,261.64    c0.27,0.04,0.65,0.07,1.14,0.1c0.49,0.03,0.98,0.04,1.49,0.04c0.51,0,0.91,0,1.22,0c1.63,0,2.85-0.46,3.67-1.38    c0.81-0.92,1.22-2.15,1.22-3.7c0-0.87-0.15-1.65-0.45-2.34c-0.3-0.69-0.83-1.22-1.59-1.62c-0.76-0.39-1.81-0.59-3.17-0.59    c-0.6,0-1.21,0.03-1.83,0.09c-0.62,0.06-1.18,0.14-1.69,0.26V261.64z M82.55,276.77c-0.17-0.22-0.31-0.46-0.43-0.74    c-0.12-0.28-0.33-0.72-0.61-1.34c-0.4-0.86-0.77-1.79-1.11-2.79c-0.34-1-0.7-1.96-1.07-2.87c-0.37-0.91-0.8-1.67-1.29-2.27    c-0.49-0.6-1.08-0.93-1.77-0.98l1.69-1.33l3.75-0.25c0.73,0.32,1.38,0.87,1.93,1.65c0.56,0.78,1.07,1.67,1.54,2.68    c0.47,1.01,0.93,2.06,1.39,3.14c0.45,1.08,0.94,2.08,1.47,3c0.19,0.36,0.39,0.71,0.59,1.06c0.2,0.35,0.4,0.69,0.59,1.04H82.55z"/>
		<path d="M112.95,277.07c-2.82,0-5.08-0.5-6.79-1.51s-2.94-2.43-3.7-4.27c-0.76-1.84-1.14-4.01-1.14-6.51l0.06-16.6h6l-0.08,15.74    c0,2.24,0.22,3.97,0.65,5.18c0.43,1.21,1.06,2.05,1.9,2.52c0.84,0.47,1.87,0.7,3.09,0.7c1.17,0,2.15-0.24,2.96-0.72    c0.81-0.48,1.42-1.33,1.84-2.55c0.42-1.22,0.63-2.93,0.63-5.14v-15.74h5.94v16.7c0,3.86-0.92,6.86-2.75,9    C119.72,276.01,116.85,277.07,112.95,277.07z"/>
		<path d="M146.41,277.07c-1.32,0-2.57-0.1-3.75-0.29s-2.2-0.42-3.06-0.69s-1.47-0.51-1.83-0.73l0.9-4.77    c0.47,0.28,1.1,0.56,1.88,0.84c0.78,0.28,1.63,0.51,2.57,0.69c0.94,0.19,1.88,0.28,2.83,0.28c1.53,0,2.66-0.24,3.41-0.71    c0.74-0.47,1.12-1.24,1.12-2.29c0-0.74-0.21-1.37-0.62-1.88c-0.41-0.51-1.05-1-1.94-1.49c-0.88-0.49-2.02-1.07-3.41-1.73    c-1.19-0.58-2.32-1.26-3.37-2.06c-1.05-0.79-1.9-1.74-2.56-2.85c-0.65-1.1-0.98-2.39-0.98-3.87c0-1.33,0.26-2.48,0.78-3.45    c0.52-0.97,1.23-1.76,2.15-2.39s1.97-1.08,3.16-1.38s2.48-0.44,3.86-0.44c1.98,0,3.6,0.19,4.87,0.56    c1.27,0.37,2.15,0.72,2.65,1.04l-1.02,4.58c-0.6-0.44-1.44-0.83-2.5-1.18c-1.06-0.35-2.28-0.53-3.65-0.53    c-0.91,0-1.7,0.11-2.38,0.33c-0.67,0.22-1.2,0.54-1.57,0.95c-0.37,0.42-0.56,0.93-0.56,1.53c0,0.72,0.18,1.33,0.53,1.84    c0.35,0.51,0.91,0.99,1.68,1.46c0.77,0.47,1.77,1,3,1.61c1.11,0.53,2.15,1.08,3.1,1.65c0.95,0.57,1.78,1.2,2.5,1.88    c0.72,0.68,1.28,1.46,1.67,2.33c0.4,0.87,0.6,1.87,0.6,3c0,1.72-0.41,3.19-1.21,4.42c-0.81,1.22-1.97,2.16-3.47,2.8    C150.28,276.75,148.49,277.07,146.41,277.07z"/>
		<path d="M175.35,276.77v-23.97h-8.14v-4.62h22.34v4.62h-8.14v23.97H175.35z"/>
		<path d="M199.03,284.42v-0.46c0.5-0.32,0.94-0.92,1.33-1.81c0.38-0.89,0.58-1.9,0.58-3.06c0-0.56-0.11-1.13-0.33-1.68    s-0.49-1.03-0.81-1.42s-0.64-0.61-0.96-0.64v-1.69l4.04-2.5c0.78,0.28,1.42,0.77,1.9,1.47s0.85,1.47,1.08,2.3s0.35,1.62,0.35,2.35    c0,1.4-0.23,2.72-0.69,3.96c-0.46,1.24-1.08,2.31-1.86,3.2c-0.78,0.89-1.63,1.51-2.57,1.86L199.03,284.42z"/>
		<path d="M241.15,276.77v-23.97h-8.14v-4.62h22.34v4.62h-8.14v23.97H241.15z"/>
		<path d="M273.82,276.77h-6.02v-28.59c0.26,0,0.51,0,0.76,0s0.5,0,0.75,0c0.25,0,0.5,0,0.76,0c0.98,0,2.11-0.05,3.41-0.15    c1.3-0.1,2.85-0.15,4.66-0.15c1.33,0,2.62,0.14,3.85,0.43c1.23,0.29,2.33,0.76,3.3,1.42c0.97,0.66,1.74,1.55,2.3,2.66    c0.56,1.12,0.85,2.5,0.85,4.16c0,1.86-0.31,3.4-0.92,4.63c-0.62,1.23-1.48,2.18-2.59,2.87c-1.11,0.69-2.41,1.14-3.9,1.38    c-0.51,0.08-1.03,0.15-1.56,0.22c-0.53,0.07-1.22,0.13-2.08,0.17c-0.86,0.04-2.05,0.07-3.56,0.07V276.77z M273.82,261.64    c0.27,0.04,0.65,0.07,1.14,0.1c0.49,0.03,0.98,0.04,1.49,0.04c0.51,0,0.91,0,1.22,0c1.63,0,2.85-0.46,3.67-1.38    c0.81-0.92,1.22-2.15,1.22-3.7c0-0.87-0.15-1.65-0.45-2.34c-0.3-0.69-0.83-1.22-1.59-1.62c-0.76-0.39-1.81-0.59-3.17-0.59    c-0.6,0-1.21,0.03-1.83,0.09c-0.62,0.06-1.18,0.14-1.69,0.26V261.64z M283.71,276.77c-0.17-0.22-0.31-0.46-0.43-0.74    c-0.12-0.28-0.33-0.72-0.61-1.34c-0.4-0.86-0.77-1.79-1.11-2.79c-0.34-1-0.7-1.96-1.07-2.87c-0.37-0.91-0.8-1.67-1.29-2.27    c-0.49-0.6-1.08-0.93-1.77-0.98l1.69-1.33l3.75-0.25c0.73,0.32,1.38,0.87,1.93,1.65c0.56,0.78,1.07,1.67,1.54,2.68    c0.47,1.01,0.93,2.06,1.39,3.14c0.45,1.08,0.94,2.08,1.47,3c0.19,0.36,0.39,0.71,0.59,1.06c0.2,0.35,0.4,0.69,0.59,1.04H283.71z"/>
		<path d="M306.01,276.77h-6.33l10.35-28.84h6.5l10.33,28.84h-6.42l-6.33-20.24l-0.89-3.31l-0.9,3.31L306.01,276.77z M305.55,270.7    l0.79-4.29h13.12l0.79,4.29H305.55z"/>
		<path d="M338.45,276.77v-28.59h5.58l10.72,16.91l3.73,7.45h-1.33l-0.86-9.6v-14.76h5.5v28.59h-5.96l-10.24-16.39l-4.29-8.47h1.62    l1,10.41v14.45H338.45z"/>
		<path d="M384.4,277.07c-1.32,0-2.57-0.1-3.75-0.29s-2.2-0.42-3.06-0.69s-1.47-0.51-1.83-0.73l0.9-4.77    c0.47,0.28,1.1,0.56,1.88,0.84c0.78,0.28,1.63,0.51,2.57,0.69c0.94,0.19,1.88,0.28,2.83,0.28c1.53,0,2.66-0.24,3.41-0.71    s1.12-1.24,1.12-2.29c0-0.74-0.21-1.37-0.62-1.88c-0.41-0.51-1.05-1-1.94-1.49c-0.88-0.49-2.02-1.07-3.41-1.73    c-1.19-0.58-2.32-1.26-3.37-2.06c-1.05-0.79-1.9-1.74-2.56-2.85c-0.65-1.1-0.98-2.39-0.98-3.87c0-1.33,0.26-2.48,0.78-3.45    c0.52-0.97,1.23-1.76,2.15-2.39s1.97-1.08,3.16-1.38s2.48-0.44,3.86-0.44c1.98,0,3.6,0.19,4.87,0.56    c1.27,0.37,2.15,0.72,2.65,1.04l-1.02,4.58c-0.6-0.44-1.44-0.83-2.5-1.18c-1.06-0.35-2.28-0.53-3.65-0.53    c-0.91,0-1.7,0.11-2.38,0.33c-0.67,0.22-1.2,0.54-1.57,0.95c-0.37,0.42-0.56,0.93-0.56,1.53c0,0.72,0.18,1.33,0.53,1.84    c0.35,0.51,0.91,0.99,1.68,1.46c0.77,0.47,1.77,1,3,1.61c1.11,0.53,2.15,1.08,3.1,1.65c0.95,0.57,1.78,1.2,2.5,1.88    c0.72,0.68,1.28,1.46,1.67,2.33c0.4,0.87,0.6,1.87,0.6,3c0,1.72-0.41,3.19-1.21,4.42c-0.81,1.22-1.97,2.16-3.47,2.8    C388.27,276.75,386.48,277.07,384.4,277.07z"/>
		<path d="M407.64,276.77v-28.59h2.44c1.26,0,2.51-0.05,3.75-0.15c1.24-0.1,2.55-0.15,3.91-0.15c2.2,0,4.1,0.32,5.67,0.97    c1.58,0.65,2.79,1.69,3.65,3.13c0.85,1.44,1.28,3.33,1.28,5.68c0,3.27-0.98,5.8-2.93,7.6c-1.96,1.8-4.79,2.69-8.5,2.69    c-0.81,0-1.47-0.01-1.97-0.02c-0.51-0.01-0.93-0.02-1.26-0.02v8.87H407.64z M413.68,263.39c0.49,0.06,0.99,0.11,1.51,0.13    c0.52,0.03,1.05,0.04,1.61,0.04c1.03,0,1.97-0.17,2.82-0.52c0.85-0.35,1.53-0.95,2.04-1.81c0.51-0.86,0.76-2.06,0.76-3.62    c0-1.82-0.47-3.21-1.42-4.17c-0.95-0.96-2.38-1.41-4.29-1.35c-0.49,0.01-1,0.04-1.54,0.08s-1.03,0.1-1.48,0.19V263.39z"/>
		<path d="M442.33,276.77H436l10.35-28.84h6.5l10.33,28.84h-6.42l-6.33-20.24l-0.89-3.31l-0.9,3.31L442.33,276.77z M441.87,270.7    l0.79-4.29h13.12l0.79,4.29H441.87z"/>
		<path d="M480.79,276.77h-6.02v-28.59c0.26,0,0.51,0,0.76,0s0.5,0,0.75,0c0.25,0,0.5,0,0.76,0c0.98,0,2.11-0.05,3.41-0.15    c1.3-0.1,2.85-0.15,4.66-0.15c1.33,0,2.62,0.14,3.85,0.43c1.23,0.29,2.33,0.76,3.3,1.42c0.97,0.66,1.74,1.55,2.3,2.66    c0.56,1.12,0.85,2.5,0.85,4.16c0,1.86-0.31,3.4-0.92,4.63c-0.62,1.23-1.48,2.18-2.59,2.87c-1.11,0.69-2.41,1.14-3.9,1.38    c-0.51,0.08-1.03,0.15-1.56,0.22c-0.53,0.07-1.22,0.13-2.08,0.17c-0.86,0.04-2.05,0.07-3.56,0.07V276.77z M480.79,261.64    c0.27,0.04,0.65,0.07,1.14,0.1c0.49,0.03,0.98,0.04,1.49,0.04c0.51,0,0.91,0,1.22,0c1.63,0,2.85-0.46,3.67-1.38    c0.81-0.92,1.22-2.15,1.22-3.7c0-0.87-0.15-1.65-0.45-2.34c-0.3-0.69-0.83-1.22-1.59-1.62c-0.76-0.39-1.81-0.59-3.17-0.59    c-0.6,0-1.21,0.03-1.83,0.09c-0.62,0.06-1.18,0.14-1.69,0.26V261.64z M490.68,276.77c-0.17-0.22-0.31-0.46-0.43-0.74    c-0.12-0.28-0.33-0.72-0.61-1.34c-0.4-0.86-0.77-1.79-1.11-2.79c-0.34-1-0.7-1.96-1.07-2.87c-0.37-0.91-0.8-1.67-1.29-2.27    c-0.49-0.6-1.08-0.93-1.77-0.98l1.69-1.33l3.75-0.25c0.73,0.32,1.38,0.87,1.93,1.65c0.56,0.78,1.07,1.67,1.54,2.68    c0.47,1.01,0.93,2.06,1.39,3.14c0.45,1.08,0.94,2.08,1.47,3c0.19,0.36,0.39,0.71,0.59,1.06c0.2,0.35,0.4,0.69,0.59,1.04H490.68z"/>
		<path d="M509.94,276.77v-28.59h17.45v4.54h-11.45v7.18h8.68v4.45h-8.68v7.79h12.66v4.64H509.94z"/>
		<path d="M541.69,276.77v-28.59h5.58l10.72,16.91l3.73,7.45h-1.33l-0.86-9.6v-14.76h5.5v28.59h-5.96l-10.24-16.39l-4.29-8.47h1.62    l1,10.41v14.45H541.69z"/>
		<path d="M578.41,262.55c0-2.4,0.36-4.51,1.1-6.34c0.73-1.83,1.75-3.36,3.04-4.6c1.3-1.24,2.8-2.17,4.49-2.8    c1.7-0.63,3.52-0.94,5.45-0.94c1.37,0,2.52,0.07,3.45,0.22c0.93,0.15,1.71,0.31,2.35,0.48c0.64,0.17,1.2,0.31,1.7,0.41l-0.81,5.23    c-0.24-0.15-0.61-0.36-1.11-0.61c-0.5-0.25-1.16-0.47-2-0.67c-0.84-0.2-1.89-0.3-3.15-0.3c-1.63,0-3.07,0.38-4.33,1.14    c-1.26,0.76-2.25,1.85-2.96,3.27c-0.72,1.42-1.08,3.14-1.08,5.16c0,2.01,0.33,3.78,0.99,5.31c0.66,1.53,1.63,2.72,2.91,3.59    c1.28,0.86,2.85,1.3,4.69,1.3c0.86,0,1.73-0.1,2.62-0.29s1.67-0.43,2.37-0.7c0.69-0.28,1.21-0.55,1.54-0.82v4.98    c-0.51,0.21-1.1,0.42-1.77,0.65c-0.67,0.23-1.43,0.43-2.3,0.6c-0.86,0.17-1.87,0.25-3.01,0.25c-2.97,0-5.52-0.6-7.64-1.8    c-2.12-1.2-3.74-2.89-4.87-5.07C578.97,268.02,578.41,265.47,578.41,262.55z"/>
		<path d="M619.04,276.77v-11.72l0.65,2.5l-10.06-19.37h6.54l5.06,10.49l1.5,3.85h-0.85l1.27-3.85l5.06-10.49h6.37l-10.06,19.41    l0.65-2.52v11.7H619.04z"/>
		<path d="M675.84,271.86c0.09-0.05,0.21-0.15,0.35-0.3c0.15-0.15,0.29-0.29,0.42-0.43c0.14-0.14,0.22-0.22,0.24-0.25    c0.55-0.3,1.01-0.7,1.39-1.21c0.37-0.51,0.65-1.09,0.84-1.72c0.18-0.64,0.28-1.28,0.28-1.93c0-0.87-0.06-1.59-0.18-2.15    c-0.12-0.56-0.22-0.97-0.28-1.22h4.81c0.06,0.27,0.14,0.68,0.24,1.22c0.1,0.55,0.15,1.27,0.15,2.17c0,1.95-0.36,3.56-1.08,4.82    c-0.72,1.26-1.67,2.28-2.85,3.05c-0.05,0.04-0.14,0.14-0.26,0.3c-0.12,0.16-0.25,0.32-0.38,0.46c-0.13,0.15-0.23,0.23-0.28,0.26    c-0.9,0.54-2.02,1.03-3.36,1.48c-1.35,0.45-2.74,0.67-4.18,0.67c-2.62,0-4.84-0.31-6.66-0.91c-1.82-0.61-3.2-1.5-4.15-2.67    c-0.94-1.17-1.41-2.61-1.41-4.3c0-1.39,0.34-2.59,1.03-3.61c0.69-1.02,1.61-1.89,2.78-2.61c1.17-0.72,2.47-1.33,3.91-1.83    c0.04-0.01,0.17-0.04,0.39-0.1c0.23-0.05,0.45-0.11,0.67-0.16c0.22-0.06,0.35-0.09,0.39-0.11c1.05-0.4,1.97-0.87,2.76-1.42    c0.79-0.55,1.4-1.22,1.83-2c0.43-0.78,0.64-1.71,0.64-2.77c0-0.42-0.09-0.87-0.29-1.34c-0.19-0.47-0.51-0.87-0.95-1.2    s-1.03-0.5-1.76-0.5c-0.91,0-1.66,0.28-2.26,0.83c-0.6,0.55-0.89,1.33-0.89,2.33c0,0.62,0.07,1.16,0.22,1.63    c0.15,0.47,0.37,0.94,0.68,1.41s0.7,1.02,1.17,1.63s1.04,1.36,1.69,2.26l0.62,0.79c0.33,0.46,0.79,1.07,1.36,1.83    c0.57,0.76,1.2,1.56,1.89,2.39c0.69,0.84,1.36,1.64,2.03,2.4c0.67,0.76,1.26,1.39,1.77,1.88c0.69,0.6,1.34,1.09,1.94,1.47    c0.6,0.38,1.22,0.66,1.89,0.86c0.66,0.19,1.44,0.31,2.34,0.35v3.17c-0.3,0.08-0.66,0.15-1.11,0.21c-0.44,0.06-0.95,0.1-1.53,0.1    c-1.64,0-3.04-0.3-4.19-0.89c-1.16-0.6-2.23-1.33-3.23-2.2c-0.64-0.64-1.34-1.39-2.11-2.25c-0.76-0.86-1.53-1.75-2.31-2.68    c-0.78-0.93-1.5-1.83-2.18-2.7c-0.68-0.87-1.26-1.64-1.75-2.31l-0.56-0.64c-0.59-0.8-1.18-1.63-1.77-2.5    c-0.59-0.87-1.08-1.81-1.46-2.8c-0.38-0.99-0.57-2.07-0.57-3.24c0-2.24,0.75-4,2.26-5.25c1.51-1.26,3.52-1.89,6.05-1.89    c1.62,0,3.01,0.31,4.19,0.92c1.18,0.61,2.09,1.44,2.73,2.47c0.64,1.03,0.96,2.18,0.96,3.43c0,1.3-0.2,2.42-0.59,3.38    c-0.39,0.95-0.93,1.78-1.62,2.47c-0.69,0.69-1.48,1.3-2.39,1.83c-0.91,0.53-1.89,1.02-2.93,1.48c-0.06,0.01-0.24,0.06-0.54,0.14    c-0.3,0.08-0.6,0.17-0.9,0.26c-0.3,0.09-0.49,0.14-0.55,0.15c-0.87,0.37-1.63,0.79-2.28,1.25c-0.65,0.46-1.15,0.98-1.5,1.54    c-0.35,0.56-0.53,1.19-0.53,1.89c0,0.76,0.2,1.44,0.61,2.06c0.41,0.62,1.05,1.11,1.95,1.47c0.9,0.37,2.1,0.55,3.6,0.55    c1.1,0,2.01-0.11,2.71-0.33S675.18,272.19,675.84,271.86z"/>
		<path d="M711.72,262.55c0-2.4,0.36-4.51,1.1-6.34c0.73-1.83,1.75-3.36,3.04-4.6c1.3-1.24,2.8-2.17,4.49-2.8    c1.7-0.63,3.52-0.94,5.45-0.94c1.37,0,2.52,0.07,3.45,0.22c0.93,0.15,1.71,0.31,2.35,0.48c0.64,0.17,1.2,0.31,1.7,0.41l-0.81,5.23    c-0.24-0.15-0.61-0.36-1.11-0.61c-0.5-0.25-1.16-0.47-2-0.67c-0.84-0.2-1.89-0.3-3.15-0.3c-1.63,0-3.07,0.38-4.33,1.14    c-1.26,0.76-2.25,1.85-2.96,3.27c-0.72,1.42-1.08,3.14-1.08,5.16c0,2.01,0.33,3.78,0.99,5.31c0.66,1.53,1.63,2.72,2.91,3.59    c1.28,0.86,2.85,1.3,4.69,1.3c0.86,0,1.73-0.1,2.62-0.29s1.67-0.43,2.37-0.7c0.69-0.28,1.21-0.55,1.54-0.82v4.98    c-0.51,0.21-1.1,0.42-1.77,0.65c-0.67,0.23-1.43,0.43-2.3,0.6c-0.86,0.17-1.87,0.25-3.01,0.25c-2.97,0-5.52-0.6-7.64-1.8    c-2.12-1.2-3.74-2.89-4.87-5.07C712.28,268.02,711.72,265.47,711.72,262.55z"/>
		<path d="M757.95,277.07c-2.74,0.05-5.11-0.54-7.08-1.76c-1.98-1.22-3.48-2.96-4.5-5.19c-1.02-2.24-1.51-4.85-1.46-7.82    c0.06-3.3,0.69-6,1.88-8.11c1.19-2.11,2.8-3.68,4.83-4.7c2.03-1.03,4.32-1.56,6.89-1.62c2.63-0.05,4.9,0.52,6.82,1.7    c1.92,1.19,3.39,2.88,4.41,5.08c1.02,2.2,1.5,4.79,1.43,7.78c-0.06,3.3-0.67,6.02-1.81,8.17c-1.14,2.15-2.7,3.75-4.66,4.81    C762.75,276.47,760.49,277.02,757.95,277.07z M758.07,272.65c2.14,0,3.84-0.84,5.1-2.52c1.26-1.68,1.88-4.31,1.88-7.89    c0-1.87-0.25-3.55-0.74-5.04c-0.5-1.49-1.23-2.66-2.22-3.53c-0.99-0.87-2.23-1.3-3.71-1.3c-1.33,0-2.56,0.33-3.67,1    c-1.11,0.67-2,1.74-2.66,3.23c-0.67,1.49-1,3.46-1,5.93c0,1.89,0.26,3.59,0.79,5.12c0.53,1.53,1.31,2.74,2.35,3.65    C755.22,272.2,756.52,272.65,758.07,272.65z"/>
		<path d="M784.56,276.77v-28.59h5.58l10.72,16.91l3.73,7.45h-1.33l-0.86-9.6v-14.76h5.5v28.59h-5.96l-10.24-16.39l-4.29-8.47h1.62    l1,10.41v14.45H784.56z"/>
		<path d="M830.11,276.9l-10.53-28.73h6.41l5.41,16.22l1.39,5.18l1.38-5.18l5.12-16.22h6.37l-10.37,28.73H830.11z"/>
		<path d="M857.35,276.77v-28.59h17.45v4.54h-11.45v7.18h8.68v4.45h-8.68v7.79h12.66v4.64H857.35z"/>
		<path d="M889.1,276.77v-28.59h5.58l10.72,16.91l3.73,7.45h-1.33l-0.86-9.6v-14.76h5.5v28.59h-5.96l-10.24-16.39l-4.29-8.47h1.62    l1,10.41v14.45H889.1z"/>
		<path d="M927.75,276.77v-28.59h6.08v28.59H927.75z"/>
		<path d="M949.17,276.77v-28.59h17.45v4.54h-11.45v7.18h8.68v4.45h-8.68v7.79h12.66v4.64H949.17z"/>
		<path d="M980.92,276.77v-28.59h5.58l10.72,16.91l3.73,7.45h-1.33l-0.86-9.6v-14.76h5.5v28.59h-5.96l-10.24-16.39l-4.29-8.47h1.62    l1,10.41v14.45H980.92z"/>
		<path d="M1017.63,262.55c0-2.4,0.36-4.51,1.1-6.34c0.73-1.83,1.75-3.36,3.04-4.6c1.3-1.24,2.8-2.17,4.49-2.8    c1.7-0.63,3.52-0.94,5.45-0.94c1.37,0,2.52,0.07,3.45,0.22c0.93,0.15,1.71,0.31,2.35,0.48c0.64,0.17,1.2,0.31,1.7,0.41l-0.81,5.23    c-0.24-0.15-0.61-0.36-1.11-0.61c-0.5-0.25-1.16-0.47-2-0.67c-0.84-0.2-1.89-0.3-3.15-0.3c-1.63,0-3.07,0.38-4.33,1.14    c-1.26,0.76-2.25,1.85-2.96,3.27c-0.72,1.42-1.08,3.14-1.08,5.16c0,2.01,0.33,3.78,0.99,5.31c0.66,1.53,1.63,2.72,2.91,3.59    c1.28,0.86,2.85,1.3,4.69,1.3c0.86,0,1.73-0.1,2.62-0.29s1.67-0.43,2.37-0.7c0.69-0.28,1.21-0.55,1.54-0.82v4.98    c-0.51,0.21-1.1,0.42-1.77,0.65s-1.43,0.43-2.3,0.6c-0.86,0.17-1.87,0.25-3.01,0.25c-2.97,0-5.52-0.6-7.64-1.8    c-2.12-1.2-3.74-2.89-4.87-5.07C1018.19,268.02,1017.63,265.47,1017.63,262.55z"/>
		<path d="M1052.34,276.77v-28.59h17.45v4.54h-11.45v7.18h8.68v4.45h-8.68v7.79H1071v4.64H1052.34z"/>
	</g>
	<g>
		<g>
			<polygon class="st0" points="120.2,43.95 120.41,43.95 120.41,12.76 61.53,12.76    "/>
			<polygon class="st0" points="126.55,12.76 126.55,43.95 126.76,43.95 185.42,12.76    "/>
			<rect x="101.03" y="159.72" class="st1" width="44.89" height="6.57"/>
			<rect x="88.15" y="172.87" class="st1" width="70.65" height="6.57"/>
			<rect x="75.27" y="186.01" class="st1" width="96.42" height="6.57"/>
			<path class="st1" d="M156.39,108.16c0,0,7.63,30.14,40.04,30.14s38.21-30.14,38.21-30.14H156.39z"/>
			<path class="st1" d="M49.39,18.23l34.19,83.57h6.64L55.27,16.39l59.52,31.64v105.12h17.36V48.03l59.53-31.64l-34.94,85.41h6.64     l34.19-83.57l30.21,83.57h6.53L200.63,8.65c-0.01-0.03-0.02-0.05-0.03-0.08c-0.02-0.06-0.05-0.12-0.08-0.18     c-0.01-0.02-0.02-0.05-0.03-0.07c-0.01-0.02-0.02-0.05-0.03-0.07c0,0-0.01-0.01-0.01-0.01c-0.03-0.06-0.07-0.11-0.11-0.17     c-0.03-0.05-0.06-0.1-0.1-0.15c-0.03-0.05-0.07-0.1-0.11-0.14c-0.03-0.04-0.07-0.08-0.1-0.12c-0.03-0.03-0.05-0.06-0.08-0.09     c-0.02-0.02-0.04-0.04-0.06-0.06c-0.05-0.05-0.1-0.09-0.15-0.13c-0.04-0.04-0.09-0.08-0.13-0.11c-0.04-0.03-0.08-0.07-0.13-0.1     c-0.04-0.03-0.08-0.05-0.12-0.07c-0.04-0.02-0.08-0.05-0.12-0.07c-0.03-0.02-0.05-0.04-0.08-0.05c-0.05-0.03-0.1-0.04-0.15-0.07     c-0.05-0.03-0.11-0.05-0.17-0.07c-0.06-0.02-0.12-0.05-0.18-0.07c-0.04-0.01-0.09-0.02-0.13-0.03c-0.03-0.01-0.05-0.01-0.08-0.02     c-0.05-0.01-0.09-0.03-0.14-0.04c-0.06-0.01-0.12-0.02-0.18-0.03c-0.06-0.01-0.12-0.01-0.18-0.02c-0.05,0-0.11-0.01-0.16-0.02     c-0.01,0-0.03,0-0.04,0c-0.01,0-0.02,0-0.02,0h-71.19V6.57h-6.14v0.05H49.21c-0.01,0-0.02,0-0.02,0c-0.01,0-0.03,0-0.04,0     c-0.05,0-0.11,0.01-0.16,0.02c-0.06,0-0.12,0.01-0.18,0.02c-0.06,0.01-0.12,0.01-0.18,0.03c-0.05,0.01-0.09,0.02-0.14,0.04     c-0.02,0.01-0.05,0.01-0.07,0.02c-0.04,0.01-0.09,0.02-0.13,0.03c-0.06,0.02-0.12,0.04-0.18,0.07c-0.06,0.02-0.11,0.05-0.17,0.07     c-0.05,0.02-0.1,0.04-0.15,0.07c-0.03,0.02-0.06,0.04-0.09,0.05c-0.04,0.02-0.07,0.04-0.11,0.07c-0.04,0.03-0.08,0.05-0.13,0.08     c-0.04,0.03-0.08,0.06-0.13,0.09c-0.05,0.04-0.09,0.08-0.14,0.12c-0.05,0.04-0.1,0.08-0.15,0.13c-0.02,0.02-0.04,0.05-0.07,0.07     c-0.02,0.02-0.04,0.05-0.06,0.07c-0.04,0.04-0.07,0.08-0.11,0.12c-0.04,0.05-0.07,0.09-0.1,0.14c-0.04,0.05-0.07,0.1-0.1,0.16     c-0.03,0.05-0.07,0.11-0.1,0.16c0,0.01-0.01,0.01-0.01,0.02c-0.01,0.03-0.02,0.06-0.03,0.08c-0.01,0.02-0.01,0.03-0.02,0.05     c-0.03,0.06-0.06,0.13-0.09,0.19c-0.01,0.03-0.02,0.05-0.03,0.07L12.66,101.8h6.53L49.39,18.23z M126.55,43.95V12.76h58.87     l-58.67,31.19H126.55z M120.41,43.95h-0.2L61.53,12.76h58.87V43.95z"/>
			<path class="st1" d="M90.55,108.16H12c0,0,5.82,30.26,38.36,30.26S90.55,108.16,90.55,108.16z"/>
		</g>
		<g>
			<g>
				<path d="M311.5,109.22c-4.65,0-9.19-0.51-13.65-1.53c-4.46-1.02-8.49-2.32-12.12-3.9l0.56-23.95l9.75,0.42l2.51,14.62      c1.49,0.56,3.39,1.09,5.71,1.6c2.32,0.51,4.6,0.77,6.83,0.77c3.15,0,6.1-0.49,8.84-1.46c2.74-0.97,4.99-2.48,6.75-4.53      c1.76-2.04,2.65-4.69,2.65-7.94c0-2.41-0.49-4.55-1.46-6.41c-0.98-1.86-2.53-3.57-4.67-5.15c-2.14-1.58-4.97-3.2-8.49-4.87      c-3.72-1.76-7.29-3.48-10.72-5.15c-3.44-1.67-6.54-3.57-9.33-5.71c-2.78-2.13-5.01-4.69-6.68-7.66c-1.67-2.97-2.51-6.64-2.51-11      c0-5.2,1.39-9.65,4.18-13.37c2.78-3.71,6.47-6.57,11.07-8.57c4.6-2,9.63-2.99,15.11-2.99c4.36,0,8.54,0.4,12.53,1.18      c3.99,0.79,7.75,1.74,11.28,2.85l1.95,23.81h-9.61l-6.27-14.76c-1.49-0.46-3.11-0.79-4.87-0.97c-1.76-0.18-3.53-0.28-5.29-0.28      c-3.07,0-5.78,0.49-8.15,1.46c-2.37,0.97-4.25,2.35-5.64,4.11c-1.39,1.76-2.09,3.9-2.09,6.41c0,2.51,0.65,4.66,1.95,6.48      c1.3,1.81,3.04,3.37,5.22,4.66c2.18,1.3,4.5,2.49,6.96,3.55c2.46,1.07,4.9,2.16,7.31,3.27c5.57,2.6,9.98,5.27,13.23,8.01      c3.25,2.74,5.59,5.69,7.03,8.84c1.44,3.16,2.16,6.64,2.16,10.45c0,4.73-0.88,8.82-2.64,12.25c-1.76,3.44-4.18,6.31-7.24,8.63      c-3.07,2.32-6.5,4.04-10.31,5.15C319.52,108.67,315.58,109.22,311.5,109.22z"/>
				<path d="M387.01,108.67l-0.7-9.05l15.87-2.78V24.41h-17.41l-5.71,13.65h-8.49l2.92-25.62h70.75l3.2,25.62h-8.49l-5.71-13.65      H415.7v72.42l16.16,2.78l-0.7,9.05H387.01z"/>
				<path d="M467.06,108.67l-1.81-8.63l7.52-2.51l27.02-85.09h14.34l27.44,85.09l6.4,2.51l-1.39,8.63h-31.19v-8.22l11.14-2.92      l-6.26-20.89h-29.25l-6.26,21.45l12.25,2.23v8.36H467.06z M494.49,65.08h21.59l-10.45-37.74L494.49,65.08z"/>
				<path d="M577.64,108.67l-1.67-9.89l8.77-1.67V23.72l-8.5-0.84V12.44h29.25l34.68,84.39V23.72l-8.49-1.11V12.44h27.3l1.67,10.31      l-8.91,1.67v84.25H630.7l-34.4-83.28v71.58l8.22,1.81v9.89H577.64z"/>
				<path d="M691.95,108.67l-1.53-9.89l8.49-1.81V23.44l-8.36-0.84V12.44h22.28c10.4,0,19.5,1.72,27.3,5.15      c7.8,3.44,13.88,8.66,18.24,15.67c4.36,7.01,6.55,15.85,6.55,26.53c0,10.68-1.88,19.66-5.64,26.95      c-3.76,7.29-9.24,12.77-16.43,16.43c-7.2,3.67-15.95,5.5-26.25,5.5H691.95z M717.16,96.83c6.13,0,11.33-0.93,15.6-2.79      c4.27-1.86,7.73-4.46,10.38-7.8c2.64-3.34,4.57-7.26,5.78-11.77c1.21-4.5,1.81-9.31,1.81-14.41c0-7.52-1.39-13.9-4.18-19.15      c-2.79-5.24-6.83-9.31-12.12-12.19c-5.29-2.88-11.79-4.32-19.5-4.32h-2.23v72.28L717.16,96.83z"/>
				<path d="M785.75,108.67l-1.81-8.63l7.52-2.51l27.02-85.09h14.34l27.44,85.09l6.4,2.51l-1.39,8.63h-31.2v-8.22l11.14-2.92      l-6.27-20.89H809.7l-6.26,21.45l12.25,2.23v8.36H785.75z M813.18,65.08h21.59l-10.45-37.74L813.18,65.08z"/>
				<path d="M895.83,108.67l-1.11-9.61l8.77-1.95V23.58l-8.77-0.84V12.44h28.97c8.08,0,14.99,1.18,20.75,3.55      c5.76,2.37,10.14,5.78,13.16,10.24c3.02,4.46,4.53,9.94,4.53,16.43c0,7.15-1.88,13.02-5.64,17.62      c-3.76,4.6-8.62,8.01-14.55,10.24l13.23,27.02l8.91,1.67v9.47H944.3l-15.6-34.95c-1.67,0.09-3.41,0.16-5.22,0.21      c-1.81,0.05-3.92,0.07-6.34,0.07v23.26l9.19,1.95v9.47H895.83z M917.14,62.01h6.13c5.01,0,9.38-0.67,13.09-2.02      c3.71-1.34,6.59-3.43,8.63-6.27c2.04-2.83,3.06-6.43,3.06-10.79c0-4.18-0.9-7.61-2.71-10.31c-1.81-2.69-4.53-4.71-8.15-6.06      c-3.62-1.34-8.22-2.07-13.79-2.16h-6.27V62.01z"/>
				<path d="M995.36,108.67l-1.53-9.89l8.49-1.81V23.44l-8.36-0.84V12.44h22.28c10.4,0,19.5,1.72,27.3,5.15      c7.8,3.44,13.88,8.66,18.24,15.67c4.36,7.01,6.55,15.85,6.55,26.53c0,10.68-1.88,19.66-5.64,26.95      c-3.76,7.29-9.24,12.77-16.43,16.43c-7.2,3.67-15.95,5.5-26.25,5.5H995.36z M1020.57,96.83c6.13,0,11.33-0.93,15.6-2.79      c4.27-1.86,7.73-4.46,10.38-7.8c2.64-3.34,4.57-7.26,5.78-11.77c1.21-4.5,1.81-9.31,1.81-14.41c0-7.52-1.39-13.9-4.18-19.15      c-2.79-5.24-6.83-9.31-12.12-12.19c-5.29-2.88-11.79-4.32-19.5-4.32h-2.23v72.28L1020.57,96.83z"/>
			</g>
			<g>
				<path d="M326.2,168.57c0-3.59,0.51-6.69,1.54-9.3c1.02-2.61,2.44-4.75,4.26-6.43c1.81-1.68,3.93-2.92,6.33-3.72      c2.41-0.8,4.99-1.2,7.76-1.2c1.99,0,3.63,0.09,4.9,0.27c1.28,0.18,2.41,0.39,3.4,0.63c0.99,0.24,2.03,0.46,3.13,0.66l-0.27,7.22      c-1.15-0.59-2.58-1.11-4.29-1.54c-1.71-0.43-3.95-0.65-6.74-0.65c-2.33,0-4.35,0.53-6.05,1.59c-1.7,1.06-3.01,2.58-3.95,4.57      c-0.93,1.99-1.4,4.38-1.4,7.18c0,2.77,0.39,5.25,1.16,7.46c0.77,2.21,1.93,3.96,3.48,5.24s3.47,1.93,5.77,1.93      c1.43,0,2.73-0.09,3.88-0.28c1.15-0.19,2.07-0.45,2.77-0.79v-9.22l1.21,1.16l-7.52-0.43v-6.09h14.12v19.21      c-0.68,0.02-1.41,0.17-2.19,0.46c-0.78,0.29-1.69,0.61-2.74,0.97s-2.32,0.67-3.83,0.94c-1.51,0.27-3.36,0.4-5.55,0.4      c-3.97,0-7.39-0.83-10.25-2.49c-2.87-1.66-5.07-4.02-6.62-7.06C326.97,176.24,326.2,172.67,326.2,168.57z"/>
				<path d="M403.6,188.83c-3.85,0.07-7.15-0.75-9.92-2.46c-2.77-1.72-4.87-4.14-6.31-7.28c-1.44-3.13-2.12-6.79-2.05-10.95      c0.09-4.62,0.97-8.4,2.64-11.36c1.67-2.96,3.93-5.15,6.77-6.59c2.84-1.44,6.05-2.19,9.65-2.26c3.68-0.07,6.87,0.72,9.55,2.38      c2.68,1.66,4.74,4.03,6.17,7.11c1.43,3.08,2.1,6.71,2.01,10.9c-0.09,4.62-0.93,8.43-2.53,11.44c-1.6,3.01-3.77,5.25-6.52,6.74      C410.3,187.99,407.15,188.76,403.6,188.83z M403.76,182.64c3,0,5.38-1.18,7.14-3.53c1.76-2.35,2.64-6.04,2.64-11.05      c0-2.62-0.35-4.98-1.04-7.06c-0.69-2.08-1.73-3.73-3.11-4.94c-1.38-1.21-3.12-1.82-5.2-1.82c-1.87,0-3.58,0.47-5.13,1.4      c-1.55,0.93-2.8,2.44-3.73,4.53c-0.93,2.08-1.4,4.85-1.4,8.3c0,2.64,0.37,5.03,1.1,7.17c0.74,2.14,1.83,3.84,3.29,5.11      C399.77,182,401.58,182.64,403.76,182.64z"/>
				<path d="M449.22,188.4v-40.04h8.35v33.28h14.47v6.76H449.22z"/>
				<path d="M497.79,188.4v-40.04c0.39,0,0.79,0,1.17,0s0.77,0,1.14,0c0.38,0,0.76,0,1.13,0c0.75,0,1.71-0.04,2.86-0.11      c1.15-0.07,2.38-0.14,3.69-0.22c1.31-0.07,2.58-0.11,3.8-0.11c6.66,0,11.57,1.7,14.71,5.09c3.14,3.4,4.72,8.16,4.72,14.28      c0,4.56-0.8,8.46-2.4,11.68c-1.6,3.23-3.9,5.68-6.89,7.37c-2.99,1.69-6.58,2.51-10.77,2.48c-1.72-0.04-3.46-0.12-5.2-0.24      c-1.74-0.13-3.36-0.19-4.85-0.19c-0.34,0-0.69,0-1.04,0c-0.35,0-0.7,0-1.05,0C498.48,188.4,498.13,188.4,497.79,188.4z       M506.25,182.13c0.68,0.18,1.52,0.31,2.51,0.38c0.99,0.07,1.97,0.1,2.94,0.08c2.1-0.02,3.94-0.53,5.52-1.54      c1.58-1.01,2.82-2.56,3.71-4.68c0.89-2.11,1.33-4.84,1.33-8.18c0-3.48-0.42-6.26-1.27-8.33c-0.85-2.07-2.11-3.55-3.8-4.46      c-1.69-0.91-3.81-1.36-6.36-1.36c-0.83,0-1.66,0.04-2.51,0.11c-0.84,0.07-1.54,0.16-2.07,0.27V182.13z"/>
				<path d="M588.36,188.4v-40.04h24.44v6.36h-16.03v10.05h12.15V171h-12.15v10.91h17.73v6.49H588.36z"/>
				<path d="M638.56,188.4l12.88-21.85l0.05,2.64l-12.72-20.83l9.21-0.05l5.9,10.32l2.99,5.31h-1.54l2.91-5.31l5.6-10.27h8.79      l-12.61,21.29l-0.24-2.51l13.18,21.26h-9.3l-6.17-10.89l-3.07-5.63l1.94-0.05l-2.96,5.69l-6.03,10.89H638.56z"/>
				<path d="M694.55,168.49c0-3.36,0.51-6.32,1.54-8.88c1.02-2.56,2.44-4.71,4.26-6.44c1.81-1.73,3.91-3.04,6.29-3.92      c2.38-0.88,4.93-1.32,7.64-1.32c1.92,0,3.53,0.1,4.84,0.31c1.3,0.21,2.4,0.43,3.29,0.67c0.89,0.24,1.69,0.44,2.39,0.58      l-1.13,7.33c-0.34-0.22-0.86-0.5-1.55-0.85c-0.69-0.35-1.63-0.66-2.8-0.94c-1.18-0.28-2.64-0.42-4.41-0.42      c-2.28,0-4.3,0.53-6.06,1.59c-1.76,1.06-3.15,2.59-4.15,4.58c-1.01,1.99-1.51,4.4-1.51,7.22c0,2.82,0.46,5.3,1.39,7.44      c0.92,2.14,2.29,3.81,4.08,5.03c1.8,1.21,3.99,1.82,6.58,1.82c1.2,0,2.43-0.13,3.66-0.4c1.24-0.27,2.34-0.6,3.32-0.98      c0.97-0.39,1.69-0.77,2.15-1.14v6.98c-0.72,0.29-1.55,0.59-2.48,0.92c-0.93,0.32-2.01,0.6-3.22,0.84      c-1.21,0.23-2.62,0.35-4.22,0.35c-4.17,0-7.73-0.84-10.7-2.52s-5.24-4.05-6.82-7.1C695.34,176.16,694.55,172.59,694.55,168.49z"/>
				<path d="M750.42,188.4v-40.04h8.46v16.73h15.71v-16.73H783v40.04h-8.41v-17.11h-15.71v17.11H750.42z"/>
				<path d="M816.53,188.4h-8.87l14.5-40.39h9.11l14.47,40.39h-9l-8.87-28.35l-1.24-4.63l-1.26,4.63L816.53,188.4z M815.89,179.92      l1.11-6.01h18.38l1.11,6.01H815.89z"/>
				<path d="M870.39,188.4v-40.04h7.81l15.01,23.69l5.23,10.43h-1.86l-1.21-13.45v-20.67h7.71v40.04h-8.36l-14.34-22.96l-6.01-11.86      h2.26l1.4,14.58v20.24H870.39z"/>
				<path d="M930.22,168.57c0-3.59,0.51-6.69,1.54-9.3c1.02-2.61,2.44-4.75,4.26-6.43c1.81-1.68,3.93-2.92,6.33-3.72      c2.41-0.8,4.99-1.2,7.76-1.2c1.99,0,3.63,0.09,4.9,0.27c1.28,0.18,2.41,0.39,3.4,0.63c0.99,0.24,2.03,0.46,3.13,0.66l-0.27,7.22      c-1.15-0.59-2.58-1.11-4.29-1.54c-1.71-0.43-3.95-0.65-6.74-0.65c-2.33,0-4.35,0.53-6.05,1.59c-1.7,1.06-3.01,2.58-3.95,4.57      c-0.93,1.99-1.4,4.38-1.4,7.18c0,2.77,0.39,5.25,1.16,7.46c0.77,2.21,1.93,3.96,3.48,5.24s3.47,1.93,5.77,1.93      c1.43,0,2.73-0.09,3.88-0.28c1.15-0.19,2.07-0.45,2.77-0.79v-9.22l1.21,1.16l-7.52-0.43v-6.09h14.12v19.21      c-0.68,0.02-1.41,0.17-2.19,0.46c-0.78,0.29-1.69,0.61-2.74,0.97s-2.32,0.67-3.83,0.94c-1.51,0.27-3.36,0.4-5.55,0.4      c-3.97,0-7.39-0.83-10.25-2.49c-2.87-1.66-5.07-4.02-6.62-7.06C930.99,176.24,930.22,172.67,930.22,168.57z"/>
				<path d="M991.68,188.4v-40.04h24.44v6.36h-16.03v10.05h12.15V171h-12.15v10.91h17.73v6.49H991.68z"/>
			</g>
		</g>
	</g>
</g>
</svg>
